<svg xmlns="http://www.w3.org/2000/svg" viewBox="0 0 60 60" fill="none"><circle cx="30" cy="30" r="30" fill="#34BB8B"/><path fill="#fff" d="M26.256 34.178c-.392 1.232-1.078 2.24-2.058 3.024-.952.784-1.974 1.176-3.066 1.176-1.232 0-2.142-.392-2.73-1.176-.588-.784-.882-1.988-.882-3.612v-6.846c0-.392-.182-.588-.546-.588h-1.302l-.126-.462c.56-.476 1.26-.868 2.1-1.176a7.167 7.167 0 0 1 2.478-.462c.364 0 .644.084.84.252a.798.798 0 0 1 .336.672v8.4c0 .952.14 1.694.42 2.226.28.504.672.756 1.176.756 1.036 0 1.862-.63 2.478-1.89.644-1.288.966-2.954.966-4.998 0-1.092-.084-1.932-.252-2.52a3.587 3.587 0 0 0-.798-1.596l-.378-.462.336-.378 4.83-.378v11.466c0 .84.252 1.26.756 1.26.532 0 1.05-.21 1.554-.63l.336.42c-.98 1.148-2.198 1.722-3.654 1.722-1.064 0-1.806-.308-2.226-.924-.392-.616-.588-1.708-.588-3.276Zm9.774-7.266c0 .7.266 1.274.798 1.722.56.42 1.4.896 2.52 1.428.924.448 1.638.84 2.142 1.176.504.308.938.728 1.302 1.26.392.532.588 1.162.588 1.89 0 1.204-.574 2.17-1.722 2.898-1.12.728-2.632 1.092-4.536 1.092-1.428 0-2.604-.252-3.528-.756-.924-.532-1.386-1.218-1.386-2.058 0-.56.21-1.022.63-1.386.42-.392.938-.588 1.554-.588.476 0 .952.098 1.428.294-.476.364-.714.952-.714 1.764 0 .56.196.994.588 1.302.392.308.868.462 1.428.462.644 0 1.19-.168 1.638-.504.476-.336.714-.812.714-1.428 0-.588-.238-1.05-.714-1.386-.448-.364-1.162-.784-2.142-1.26a24.893 24.893 0 0 1-2.184-1.134 5.192 5.192 0 0 1-1.386-1.428c-.392-.588-.588-1.302-.588-2.142 0-1.26.532-2.254 1.596-2.982 1.064-.728 2.408-1.092 4.032-1.092 1.428 0 2.59.266 3.486.798.924.532 1.386 1.218 1.386 2.058 0 .644-.196 1.12-.588 1.428-.392.308-.896.462-1.512.462-.588 0-1.106-.126-1.554-.378.504-.476.756-1.078.756-1.806 0-.476-.182-.854-.546-1.134-.364-.308-.84-.462-1.428-.462-.644 0-1.148.182-1.512.546a1.827 1.827 0 0 0-.546 1.344Z"/></svg>