<svg xmlns="http://www.w3.org/2000/svg" viewBox="0 0 32 32" fill="none"><path fill="url(#a)" d="M30 19c0-7-3.5-12-8-12-3.5 0-6 4-6 4-2 3-2 8.5 1 2.5 0 0 2.5-4 5-4 3.5 0 5.344 6 5.344 9.5 0 1-.344 3-2.344 3v3c2 0 5-1.5 5-6Z"/><path fill="url(#b)" d="M10 7v3c-3.2.4-5 5.5-5 9 0 1 .5 3 2 3 2.5 0 5.375-5.52 8-9.557 1.394-2.144 2.78-.303 1.723 1.557C14.217 18.408 11.707 25 7 25c-2 0-5-1.5-5-6 0-9 5.5-12 8-12Z"/><path fill="#0768E1" d="M25 22c-3.5 0-7.5-15-15-15v3c6 0 8.5 15 15 15v-3Z"/><defs><radialGradient id="a" cx="0" cy="0" r="1" gradientTransform="matrix(-3.50003 -17.50003 13.61114 -2.72225 25 24)" gradientUnits="userSpaceOnUse"><stop stop-color="#0768E1"/><stop offset="1" stop-color="#0082FB"/></radialGradient><radialGradient id="b" cx="0" cy="0" r="1" gradientTransform="matrix(-10.50003 4.99994 -2.62242 -5.50718 10 9)" gradientUnits="userSpaceOnUse"><stop stop-color="#0768E1"/><stop offset="1" stop-color="#0082FB"/></radialGradient></defs></svg>